<?xml version="1.0" encoding="UTF-8"?>
<!-- Generator: visioncortex VTracer 0.6.12 -->
<svg version="1.1" xmlns="http://www.w3.org/2000/svg" width="1254" height="1254">
<path d="M0 0 C413.82 0 827.64 0 1254 0 C1254 413.82 1254 827.64 1254 1254 C840.18 1254 426.36 1254 0 1254 C0 840.18 0 426.36 0 0 Z " fill="#FEFDFE" transform="translate(0,0)"/>
<path d="M0 0 C11.743622 10.104977 19.848818 24.560373 21.422852 40.068848 C22.492113 58.480913 18.767333 75.191893 6.785156 89.648438 C-3.133414 100.280679 -14.716871 106.318189 -28.8125 109.75 C-29.593672 109.94207 -30.374844 110.134141 -31.179688 110.332031 C-48.859829 113.138819 -65.160983 108.656919 -79.863281 98.679688 C-92.726073 88.752388 -101.673214 74.157857 -104.4375 58.125 C-106.404221 38.754654 -102.103729 22.319977 -89.75 7.125 C-66.515239 -20.070731 -27.38653 -21.136492 0 0 Z " fill="#092564" transform="translate(166.8125,515.25)"/>
<path d="M0 0 C0.896201 -0.008072 1.792401 -0.016143 2.715759 -0.02446 C4.622335 -0.038316 6.528937 -0.049031 8.435547 -0.056885 C10.363356 -0.068314 12.291137 -0.088618 14.21875 -0.118408 C34.441709 -0.4309 50.220884 2.647056 65.484375 16.988281 C78.844576 31.19434 82.037582 46.621933 81.492188 65.460938 C80.659274 81.618933 73.625641 94.09775 62.109375 105.238281 C53.41337 112.9023 39.735057 119.216371 27.970947 119.431152 C27.166537 119.447215 26.362127 119.463278 25.53334 119.479828 C21.877301 119.524542 18.221435 119.565303 14.565186 119.588379 C12.63798 119.604966 10.710836 119.632292 8.783936 119.67041 C5.997561 119.72519 3.212621 119.747049 0.425781 119.761719 C-0.432689 119.784388 -1.291159 119.807057 -2.175644 119.830414 C-6.607543 119.814773 -8.328994 119.686079 -11.9104 116.830566 C-14.398643 113.573242 -15.015417 112.056278 -15.037796 108.051941 C-15.044951 107.174376 -15.052107 106.296812 -15.059479 105.392654 C-15.062168 104.427444 -15.064857 103.462233 -15.067627 102.467773 C-15.074198 101.452994 -15.080769 100.438215 -15.08754 99.392685 C-15.107303 96.023508 -15.118942 92.654376 -15.128906 89.285156 C-15.132982 88.13606 -15.137057 86.986964 -15.141256 85.803047 C-15.16213 79.720751 -15.176426 73.638477 -15.185791 67.556152 C-15.196856 61.270057 -15.231254 54.984315 -15.270963 48.698345 C-15.297096 43.868483 -15.30548 39.038705 -15.309072 34.208778 C-15.313947 31.891529 -15.325587 29.574283 -15.34411 27.257103 C-15.36843 24.013238 -15.36755 20.770295 -15.360596 17.526367 C-15.367001 17.04781 -15.367001 17.04781 -15.399414 14.626022 C-15.354413 8.865671 -14.702958 5.639789 -10.890625 1.238281 C-7.521123 -0.44647 -3.707874 0.031684 0 0 Z " fill="#FDBB39" transform="translate(1006.890625,503.76171875)"/>
<path d="M0 0 C0.804375 0.010312 1.60875 0.020625 2.4375 0.03125 C9.813562 1.38053 13.343229 5.775534 17.75 11.375 C18.361257 12.134419 18.972515 12.893838 19.602295 13.67627 C24.053775 19.229971 28.401379 24.863153 32.710938 30.527344 C35.613884 34.297211 38.633303 37.962287 41.660156 41.632812 C45.701054 46.584431 49.625229 51.627609 53.562012 56.662109 C56.016274 59.798898 58.477032 62.930579 60.9375 66.0625 C61.385933 66.633958 61.834365 67.205415 62.296387 67.794189 C64.847533 71.043072 67.417565 74.275962 70 77.5 C70.001425 76.62161 70.00285 75.743219 70.004318 74.838211 C70.022158 66.554314 70.063802 58.27095 70.132091 49.987309 C70.166361 45.728692 70.191471 41.470432 70.195557 37.21167 C70.19984 33.100529 70.228301 28.990197 70.273432 24.879309 C70.286407 23.312107 70.290714 21.744809 70.286154 20.177561 C70.281247 17.979224 70.307335 15.783251 70.340576 13.585205 C70.347238 12.335001 70.3539 11.084796 70.360764 9.796707 C71.16602 5.64379 72.813218 4.179165 76 1.5 C76.33 1.17 76.66 0.84 77 0.5 C79.292969 0.15625 79.292969 0.15625 82.1875 0 C83.129805 -0.072187 84.072109 -0.144375 85.042969 -0.21875 C88.88934 0.716167 90.258995 2.321243 92.719481 5.330364 C95.071171 9.314929 94.809068 13.334202 94.72876 17.854004 C94.734455 18.87112 94.74015 19.888235 94.746017 20.936172 C94.757093 24.283685 94.725106 27.629225 94.691406 30.976562 C94.687828 33.308703 94.686472 35.640849 94.687241 37.972992 C94.682555 42.85369 94.65775 47.733726 94.617432 52.614258 C94.566406 58.870062 94.554991 65.12514 94.557267 71.381128 C94.556452 76.193847 94.54 81.006407 94.518263 85.819073 C94.508718 88.125948 94.502804 90.432841 94.500582 92.739735 C94.494077 95.96173 94.467818 99.182955 94.435791 102.404785 C94.437151 103.357639 94.43851 104.310493 94.439911 105.292221 C94.369076 110.165382 94.205527 113.560766 91 117.5 C87.844226 119.732795 84.869093 119.855896 81.0625 119.9375 C80.552676 119.95748 80.552676 119.95748 77.972656 120.058594 C73.941422 119.301082 72.641707 117.581991 70 114.5 C69.233008 113.623438 68.466016 112.746875 67.675781 111.84375 C62.961233 106.170707 58.362255 100.438039 53.891846 94.568359 C50.656798 90.327731 47.343468 86.155536 44 82 C40.29646 77.395662 36.645922 72.761023 33.0625 68.0625 C28.613328 62.241018 24.018754 56.54813 19.377197 50.87915 C18.851824 50.237117 18.32645 49.595083 17.785156 48.933594 C17.319885 48.36697 16.854614 47.800347 16.375244 47.216553 C14.873396 45.341976 13.437541 43.424162 12 41.5 C11.994134 42.37839 11.988268 43.256781 11.982224 44.161789 C11.924285 52.4456 11.852202 60.729141 11.764285 69.012691 C11.719585 73.271218 11.680328 77.529649 11.653564 81.78833 C11.627528 85.899316 11.587123 90.009934 11.536814 94.120691 C11.520147 95.687894 11.508632 97.25516 11.502386 98.822439 C11.492742 101.020282 11.464681 103.217184 11.432373 105.414795 C11.42127 106.664999 11.410167 107.915204 11.398727 109.203293 C10.965758 112.783119 10.169821 114.648452 8 117.5 C3.764471 120.323686 -0.024773 120.166538 -5 119.5 C-7.934232 117.703531 -9.472054 116.555893 -11 113.5 C-11.1044 112.067147 -11.148104 110.629636 -11.160629 109.193039 C-11.170675 108.288787 -11.180721 107.384535 -11.191071 106.452881 C-11.196902 105.458047 -11.202733 104.463213 -11.20874 103.438232 C-11.218524 102.392586 -11.228308 101.34694 -11.238388 100.269608 C-11.268381 96.798241 -11.289737 93.326913 -11.308594 89.855469 C-11.315166 88.672027 -11.321737 87.488585 -11.328508 86.269281 C-11.361117 80.0066 -11.385566 73.743936 -11.405029 67.481201 C-11.422857 62.290521 -11.4577 57.100382 -11.507568 51.909912 C-11.567642 45.650587 -11.598488 39.391765 -11.608202 33.132166 C-11.616779 30.744278 -11.635651 28.356403 -11.664946 25.968679 C-11.703722 22.628503 -11.704912 19.290298 -11.697021 15.949951 C-11.717022 14.96119 -11.737023 13.972429 -11.757629 12.953705 C-11.688273 6.423026 -11.688273 6.423026 -9.707567 3.766748 C-6.607596 1.072476 -4.09365 -0.157448 0 0 Z " fill="#092463" transform="translate(643,503.5)"/>
<path d="M0 0 C5.226447 1.650457 7.398522 4.373114 10 9 C11.771162 12.761116 13.35394 16.594274 14.9375 20.4375 C15.175493 21.007668 15.175493 21.007668 16.379883 23.893066 C17.400738 26.339348 18.419441 28.786414 19.435059 31.234863 C21.23181 35.563115 23.048681 39.882855 24.865509 44.202713 C30.666892 57.99868 36.429399 71.810923 42.1875 85.625 C42.515687 86.412114 42.843875 87.199227 43.182007 88.010193 C44.115248 90.248808 45.047958 92.487643 45.980469 94.726562 C46.256968 95.389765 46.533466 96.052968 46.818344 96.736267 C47.548228 98.489738 48.274268 100.244807 49 102 C49.385349 102.93175 49.770698 103.863501 50.167725 104.823486 C51.556174 108.454471 51.369721 111.117929 51 115 C49.414062 117.214844 49.414062 117.214844 47 119 C43.6875 119.53125 43.6875 119.53125 40 119.5 C39.391562 119.505156 39.391562 119.505156 36.3125 119.53125 C33 119 33 119 30.796875 117.535156 C28.233154 113.91808 26.782699 110.07842 25.25 105.9375 C24.93418 105.122168 24.618359 104.306836 24.292969 103.466797 C22 97.426661 22 97.426661 22 94 C4.18 94 -13.64 94 -32 94 C-32.66 96.31 -33.32 98.62 -34 101 C-39.594937 116.797468 -39.594937 116.797468 -44 119 C-46.28736 119.174848 -48.581414 119.2672 -50.875 119.3125 C-52.109922 119.349883 -53.344844 119.387266 -54.617188 119.425781 C-58 119 -58 119 -60.445312 117.480469 C-62.710607 113.866243 -62.804029 111.06664 -62 107 C-60.389044 102.351329 -58.359572 97.906187 -56.3125 93.4375 C-55.423065 91.451836 -54.539154 89.46377 -53.655472 87.47554 C-53.042614 86.097433 -52.42808 84.72007 -51.811935 83.34343 C-48.388163 75.680144 -45.159918 67.93708 -41.9375 60.1875 C-35.95965 45.826743 -35.95965 45.826743 -32.83374 38.866943 C-31.698686 36.325286 -30.626013 33.759803 -29.5625 31.1875 C-29.140977 30.173008 -28.719453 29.158516 -28.285156 28.113281 C-27.433573 26.050328 -26.587149 23.985236 -25.746094 21.917969 C-23.748901 17.040812 -21.697507 12.199411 -19.4375 7.4375 C-19.064961 6.652461 -18.692422 5.867422 -18.308594 5.058594 C-13.975464 -1.758001 -7.274696 -0.652277 0 0 Z " fill="#092564" transform="translate(547,504)"/>
<path d="M0 0 C0.72261 -0.008762 1.44522 -0.017523 2.189728 -0.02655 C4.569242 -0.048487 6.946884 -0.034012 9.326416 -0.01709 C10.986418 -0.02046 12.646418 -0.025314 14.306412 -0.031586 C17.782476 -0.03895 21.257897 -0.028269 24.733887 -0.004883 C29.180692 0.023583 33.625988 0.007213 38.072738 -0.022745 C41.50014 -0.040851 44.927187 -0.035045 48.354601 -0.022106 C49.993594 -0.01878 51.632619 -0.022832 53.271574 -0.034504 C55.56733 -0.047265 57.860673 -0.027766 60.15625 0 C61.460212 0.003978 62.764174 0.007956 64.107651 0.012054 C68.74822 0.845503 70.368092 2.306193 73.642822 5.646973 C74.64136 9.383435 74.320475 12.854398 73.642822 16.646973 C71.545013 20.263885 70.59408 21.329887 66.642822 22.646973 C64.786875 22.735374 62.927871 22.7646 61.069824 22.760498 C59.928868 22.760423 58.787912 22.760347 57.612381 22.760269 C56.381059 22.755108 55.149738 22.749947 53.881104 22.744629 C52.620174 22.743214 51.359244 22.741799 50.060104 22.740341 C46.711305 22.735688 43.362574 22.726706 40.013794 22.715637 C36.595221 22.7054 33.176641 22.700784 29.758057 22.695801 C23.05294 22.685614 16.347943 22.666039 9.642822 22.646973 C9.972822 31.226973 10.302822 39.806973 10.642822 48.646973 C13.977627 48.661152 17.312432 48.675332 20.748291 48.689941 C23.981874 48.720564 27.215251 48.759653 30.44873 48.799561 C32.694099 48.822742 34.939577 48.837137 37.185059 48.842529 C40.415159 48.851817 43.643548 48.892807 46.873291 48.939941 C47.875552 48.936009 48.877813 48.932076 49.910446 48.928024 C54.657975 49.02717 56.915645 49.090083 60.778809 52.048584 C63.256798 55.50284 63.242421 57.389345 63.01001 61.490723 C62.513761 64.404866 61.499652 66.361644 59.642822 68.646973 C57.246999 69.844884 55.775047 69.767647 53.101318 69.760498 C52.160494 69.760423 51.21967 69.760347 50.250336 69.760269 C49.232591 69.755108 48.214846 69.749947 47.16626 69.744629 C46.125876 69.743214 45.085491 69.741799 44.01358 69.740341 C40.681632 69.734731 37.34975 69.722177 34.017822 69.709473 C31.762615 69.704459 29.507406 69.699896 27.252197 69.695801 C21.715693 69.685608 16.179332 69.666035 10.642822 69.646973 C10.642822 78.886973 10.642822 88.126973 10.642822 97.646973 C14.699502 97.600566 18.756182 97.55416 22.935791 97.506348 C26.176944 97.480611 29.418067 97.458925 32.659264 97.439972 C36.077251 97.418877 39.49484 97.390703 42.912598 97.345215 C46.836946 97.293313 50.761133 97.274003 54.685791 97.256348 C55.90679 97.235703 57.127789 97.215057 58.385788 97.193787 C59.526593 97.193484 60.667398 97.193182 61.842773 97.192871 C62.844269 97.183989 63.845765 97.175106 64.877609 97.165955 C68.405664 97.779671 70.077541 99.202235 72.642822 101.646973 C74.491449 105.344226 74.118693 109.611587 73.642822 113.646973 C71.846354 116.581205 70.698715 118.119026 67.642822 119.646973 C65.300756 119.76499 62.955277 119.816873 60.610352 119.839844 C60.248462 119.843932 60.248462 119.843932 58.417084 119.864624 C56.017078 119.889477 53.617131 119.905994 51.217041 119.92041 C50.397674 119.925734 49.578306 119.931058 48.73411 119.936543 C44.397131 119.963274 40.060181 119.982649 35.723145 119.99707 C31.243829 120.013718 26.765249 120.058495 22.286212 120.109442 C18.841793 120.143101 15.39755 120.154646 11.952982 120.160297 C10.301943 120.167014 8.650915 120.182246 7.000036 120.206188 C4.68724 120.237816 2.376432 120.237881 0.063477 120.230469 C-1.251755 120.238556 -2.566986 120.246642 -3.922073 120.254974 C-7.357178 119.646973 -7.357178 119.646973 -10.280533 117.766388 C-13.283913 113.254885 -13.058278 109.465485 -13.00415 104.152832 C-13.012912 103.096994 -13.021674 102.041156 -13.030701 100.953323 C-13.052696 97.465371 -13.03814 93.978688 -13.02124 90.490723 C-13.024608 88.066038 -13.029461 85.641354 -13.035736 83.216675 C-13.043108 78.135823 -13.032392 73.05541 -13.009033 67.974609 C-12.980546 61.460742 -12.996948 54.947904 -13.026896 48.434074 C-13.04496 43.427472 -13.039214 38.421114 -13.026257 33.414505 C-13.02292 31.01272 -13.027017 28.610912 -13.038654 26.209152 C-13.051349 22.852541 -13.032003 19.4976 -13.00415 16.141113 C-13.014272 15.147714 -13.024393 14.154315 -13.034821 13.130814 C-12.966223 8.670293 -12.799715 6.309615 -10.276566 2.531525 C-6.601936 0.159441 -4.362292 0.013316 0 0 Z " fill="#082363" transform="translate(376.357177734375,503.35302734375)"/>
<path d="M0 0 C3.413117 2.525706 4.666378 3.999133 6 8 C6.112352 9.334513 6.175756 10.673544 6.205322 12.012451 C6.225267 12.813055 6.245213 13.613658 6.265762 14.438522 C6.282475 15.29799 6.299187 16.157457 6.316406 17.042969 C6.337187 17.926566 6.357968 18.810163 6.379379 19.720535 C6.444758 22.542778 6.503705 25.365113 6.5625 28.1875 C6.605696 30.100921 6.649311 32.014333 6.693359 33.927734 C6.800427 38.618394 6.901728 43.309148 7 48 C9.85846 45.170971 12.71095 42.335992 15.5625 39.5 C16.362363 38.708516 17.162227 37.917031 17.986328 37.101562 C22.189617 32.91543 26.223407 28.663264 30.094482 24.169922 C33.755958 20.00039 37.567672 15.976772 41.433105 11.99707 C42.399841 10.993342 43.357496 9.980794 44.306152 8.959961 C52.195362 0.483861 52.195362 0.483861 56.596924 -0.696289 C61.086523 -0.767099 64.498068 0.028664 68 3 C70.257245 5.902172 70.612956 9.227915 70.492188 12.871094 C69.480743 17.245991 66.125372 19.960994 63 23 C61.642904 24.357096 60.285839 25.714225 58.929688 27.072266 C57.970042 28.0306 57.007761 28.986301 56.042969 29.939453 C52.887641 33.064607 49.96328 36.297315 47.105469 39.691406 C45.271405 41.702411 43.388047 43.58121 41.425781 45.464844 C40.782297 46.087058 40.138813 46.709272 39.47583 47.350342 C38.172291 48.603627 36.858452 49.846298 35.533936 51.077393 C34.934924 51.655134 34.335913 52.232876 33.71875 52.828125 C33.171543 53.342783 32.624336 53.857441 32.060547 54.387695 C31 56 31 56 31.147949 57.986328 C32.112183 60.265124 33.198375 61.611585 34.914062 63.390625 C35.506628 64.013484 36.099194 64.636343 36.709717 65.278076 C37.34176 65.928811 37.973804 66.579546 38.625 67.25 C39.916227 68.604647 41.206602 69.960107 42.496094 71.316406 C42.803455 71.638108 42.803455 71.638108 44.358887 73.266113 C46.186845 75.197407 47.953109 77.171856 49.6875 79.1875 C52.073847 81.959519 54.515936 84.673324 56.992188 87.365479 C57.950532 88.40784 58.906295 89.452579 59.859375 90.499756 C62.027067 92.878572 64.209536 95.209866 66.484375 97.488281 C72.481292 103.644691 72.481292 103.644691 72.6875 108.25 C72.008782 111.952096 71.325286 114.071862 69 117 C64.707187 119.861875 61.031883 119.953805 56 119 C52.790998 117.158672 50.481046 114.720832 48 112 C47.315508 111.262656 46.631016 110.525313 45.925781 109.765625 C44.434302 108.126872 42.957073 106.475069 41.492188 104.8125 C38.665612 101.622635 35.7752 98.497738 32.875 95.375 C28.501257 90.652179 24.192215 85.885584 20 81 C19.421211 80.327109 18.842422 79.654219 18.246094 78.960938 C16.828195 77.309464 15.413703 75.655067 14 74 C11.092723 75.303262 8.901517 76.414674 7 79 C6.729071 81.51312 6.630122 83.790375 6.664062 86.300781 C6.651546 87.767583 6.638508 89.234379 6.625 90.701172 C6.621078 93.005286 6.624977 95.308965 6.639648 97.613037 C6.648261 99.842935 6.626465 102.071041 6.601562 104.300781 C6.614906 104.982237 6.62825 105.663693 6.641998 106.365799 C6.556533 111.948039 4.798111 114.210848 1 118 C-2.714532 119.857266 -6.955794 119.585011 -11 119 C-13.824243 116.809771 -15.415086 115.169828 -17 112 C-17.100009 110.607277 -17.139368 109.209947 -17.147171 107.81366 C-17.154326 106.936095 -17.161482 106.058531 -17.168854 105.154373 C-17.171543 104.189162 -17.174232 103.223952 -17.177002 102.229492 C-17.183573 101.214713 -17.190144 100.199934 -17.196915 99.154404 C-17.216678 95.785227 -17.228317 92.416094 -17.238281 89.046875 C-17.242357 87.897779 -17.246432 86.748683 -17.250631 85.564766 C-17.271505 79.482469 -17.285801 73.400196 -17.295166 67.317871 C-17.306231 61.031776 -17.340629 54.746034 -17.380338 48.460064 C-17.406471 43.630202 -17.414855 38.800424 -17.418447 33.970497 C-17.423322 31.653248 -17.434962 29.336002 -17.453485 27.018822 C-17.477805 23.774957 -17.476925 20.532013 -17.469971 17.288086 C-17.476376 16.809529 -17.476376 16.809529 -17.508789 14.387741 C-17.463788 8.62739 -16.812333 5.401508 -13 1 C-9.043526 -0.978237 -4.301758 -0.564877 0 0 Z " fill="#FC6744" transform="translate(834,504)"/>
<path d="M0 0 C9.9482 6.583899 9.9482 6.583899 12.222656 11.132812 C12.813252 14.824034 12.864781 17.184754 10.730469 20.335938 C5.157745 26.764224 5.157745 26.764224 0.597656 27.632812 C-3.150816 27.077483 -3.850283 26.443542 -6.527344 23.945312 C-16.100263 15.190896 -24.749618 14.073166 -37.464844 14.589844 C-47.11664 15.330334 -54.510896 19.738459 -61.023438 26.78125 C-69.175513 37.711204 -70.498644 47.981964 -69.777344 61.132812 C-69.155957 64.372245 -68.163783 67.149867 -66.777344 70.132812 C-66.510508 70.804414 -66.243672 71.476016 -65.96875 72.167969 C-61.816881 81.744947 -54.201361 87.232642 -44.777344 91.132812 C-36.856286 93.773165 -24.501601 93.399976 -16.730469 90.1875 C-12.096957 87.685404 -7.818271 84.742665 -3.6875 81.484375 C-1.777344 80.132812 -1.777344 80.132812 0.972656 79.507812 C5.998124 80.474249 9.167495 83.069224 12.222656 87.132812 C13.353114 90.412898 13.25259 92.832472 12.222656 96.132812 C6.651133 105.764342 -4.859971 111.242106 -15.183594 114.214844 C-31.363461 118.007457 -50.200921 116.47767 -64.527344 107.945312 C-79.71386 97.426417 -89.541537 83.846303 -93.378174 65.591309 C-96.084241 48.924583 -93.781478 32.717877 -84.492188 18.464844 C-64.380367 -8.8854 -29.528997 -18.155696 0 0 Z " fill="#082464" transform="translate(311.77734375,509.8671875)"/>
<path d="M0 0 C0.782944 0.001289 1.565889 0.002578 2.372559 0.003906 C8.97302 0.112177 15.031545 1.24348 21.3125 3.3125 C21.3125 3.9725 21.3125 4.6325 21.3125 5.3125 C22.17875 5.539375 23.045 5.76625 23.9375 6 C28.240099 7.673233 32.174122 10.035745 34.3125 14.3125 C34.860521 20.01192 33.922118 22.877826 30.3125 27.3125 C26.562381 29.812579 24.760671 29.726283 20.3125 29.3125 C17.242188 27.78125 17.242188 27.78125 14.1875 25.8125 C7.493314 22.0181 1.918532 20.815895 -5.6875 22.3125 C-9.177 23.911368 -11.922372 25.782243 -13.6875 29.3125 C-14.034916 34.610587 -14.22278 38.070164 -10.6875 42.3125 C-6.04537 45.845014 -1.618195 47.488617 3.875 49.125 C17.628766 53.470438 29.493407 58.955383 37.015625 71.714844 C40.961264 79.618007 41.670289 87.797356 39.554688 96.390625 C35.944634 106.7944 30.103083 114.292397 20.574219 119.933594 C9.155971 125.161404 -5.427531 125.345833 -17.375 121.6875 C-25.48122 118.414946 -34.778873 113.642445 -40.0625 106.4375 C-41.042358 103.105984 -41.157773 100.780762 -40.6875 97.3125 C-38.576403 94.042243 -36.202523 91.070012 -32.6875 89.3125 C-28.802197 88.844723 -27.100835 89.049619 -23.757812 91.175781 C-23.271836 91.579902 -23.271836 91.579902 -20.8125 93.625 C-13.105332 99.721379 -7.52881 101.948926 2.402344 101.660156 C6.660441 101.151471 9.964516 100.022773 13.3125 97.3125 C16.333784 93.063819 17.125313 89.460317 16.3125 84.3125 C13.38664 77.931338 7.460112 75.775055 1.270752 73.441162 C-0.710798 72.718115 -2.697684 72.012445 -4.6875 71.3125 C-17.811747 66.605674 -28.365427 61.537426 -35.5625 49.0625 C-38.907762 40.885192 -39.175423 30.364051 -36.25 22 C-32.044834 13.115846 -24.81462 5.975558 -15.6875 2.3125 C-10.325581 0.477647 -5.599846 -0.038396 0 0 Z " fill="#1AB8C7" transform="translate(1152.6875,501.6875)"/>
<path d="M0 0 C10.788177 6.039136 17.111639 14.091823 21.503906 25.511719 C23.916052 37.572446 21.795655 49.803821 15.253906 60.261719 C9.364127 68.753118 1.17125 73.730913 -8.746094 76.261719 C-20.983099 78.138086 -31.57338 76.559821 -41.746094 69.261719 C-49.353228 62.927977 -52.904882 55.622498 -55.746094 46.261719 C-55.845352 45.940742 -55.845352 45.940742 -56.347656 44.316406 C-58.327074 34.108822 -57.11792 24.189719 -51.746094 15.261719 C-39.515454 -1.416426 -19.671601 -8.773719 0 0 Z " fill="#FAFBFC" transform="translate(142.74609375,526.73828125)"/>
<path d="M0 0 C30.252052 0 30.252052 0 40.253906 8.234375 C47.833683 15.898936 51.984839 25.660586 52.375 36.375 C52.279441 46.050352 49.090966 56.912664 42.707031 64.363281 C30.339322 76.221566 16.986848 76 0 76 C0 50.92 0 25.84 0 0 Z " fill="#FDFCF9" transform="translate(1014,526)"/>
<path d="M0 0 C2.934232 1.796469 4.472054 2.944107 6 6 C6.098016 7.407713 6.135014 8.819923 6.140442 10.231033 C6.143297 10.674745 6.143297 10.674745 6.157745 12.920197 C6.158863 13.896329 6.159981 14.872462 6.161133 15.878174 C6.166098 16.904313 6.171063 17.930452 6.176178 18.987686 C6.190825 22.394141 6.197606 25.80055 6.203125 29.207031 C6.208875 31.568741 6.214632 33.93045 6.220398 36.29216 C6.230915 41.249544 6.236753 46.206913 6.240234 51.164307 C6.245719 57.519937 6.269744 63.875353 6.298206 70.230916 C6.316821 75.11135 6.322038 79.991732 6.32357 84.872198 C6.3266 87.215381 6.33464 89.558564 6.347755 91.901712 C6.36479 95.179189 6.362942 98.45614 6.356445 101.733643 C6.36566 102.703702 6.374875 103.673762 6.384369 104.673218 C6.353818 109.587771 6.260428 113.037928 3 117 C0.108214 118.971946 -2.470972 119.371808 -5.9375 119.5 C-6.771523 119.551563 -7.605547 119.603125 -8.464844 119.65625 C-11.547963 118.858154 -12.974666 117.426086 -14.931971 114.958376 C-17.058667 111.05879 -16.700706 106.826039 -16.662842 102.484131 C-16.67321 101.437901 -16.683578 100.39167 -16.69426 99.313736 C-16.721312 95.863704 -16.711672 92.414944 -16.699219 88.964844 C-16.705127 86.564007 -16.712374 84.163173 -16.720901 81.762344 C-16.732778 76.734554 -16.726078 71.707207 -16.706787 66.679443 C-16.683883 60.233859 -16.7107 53.789592 -16.751849 47.344138 C-16.77741 42.388138 -16.774852 37.432454 -16.763956 32.476412 C-16.762468 30.099735 -16.770172 27.723034 -16.787207 25.346418 C-16.807148 22.025621 -16.788818 18.707163 -16.760498 15.386475 C-16.774214 14.403997 -16.787931 13.42152 -16.802063 12.409271 C-16.691388 5.922538 -16.691388 5.922538 -14.704889 3.271898 C-10.044538 -0.777883 -5.862113 -1.084491 0 0 Z " fill="#FDBD37" transform="translate(952,504)"/>
<path d="M0 0 C4.792761 3.009408 7.20713 6.71778 9 12 C9.992356 17.689507 8.70779 22.952679 6 28 C2.260136 32.548483 -1.586446 35.570688 -7.546875 36.320312 C-13.891035 36.583192 -18.809539 35.779343 -24 32 C-28.364129 27.521025 -30.284109 22.922385 -30.4375 16.6875 C-30.329092 10.941881 -28.727066 7.319312 -25 3 C-17.410763 -4.209775 -9.11199 -4.813881 0 0 Z " fill="#142C68" transform="translate(452,688)"/>
<path d="M0 0 C1.164225 0.000922 2.328449 0.001844 3.527953 0.002793 C3.850981 0.002366 3.850981 0.002366 5.485698 0.000204 C7.666106 -0.001452 9.846438 0.004074 12.026839 0.009522 C13.583617 0.009804 15.140395 0.009647 16.697173 0.00908 C20.93666 0.008792 25.176118 0.014689 29.415598 0.021654 C33.841222 0.027887 38.266846 0.028491 42.692473 0.029679 C51.078947 0.032793 59.465408 0.041007 67.851877 0.051029 C77.397061 0.062189 86.942246 0.0677 96.487435 0.072724 C116.1281 0.083189 135.768753 0.100789 155.409408 0.123048 C155.791595 1.779194 156.123359 3.447618 156.409408 5.123048 C155.409408 6.123048 155.409408 6.123048 152.818815 6.246096 C151.654591 6.245174 150.490366 6.244252 149.290862 6.243302 C148.644806 6.244157 147.998751 6.245011 147.333118 6.245892 C145.152709 6.247548 142.972377 6.242022 140.791976 6.236573 C139.235198 6.236291 137.67842 6.236449 136.121642 6.237016 C131.882156 6.237304 127.642697 6.231406 123.403217 6.224442 C118.977593 6.218209 114.551969 6.217604 110.126342 6.216416 C101.739868 6.213303 93.353407 6.205089 84.966939 6.195067 C75.421754 6.183906 65.876569 6.178395 56.33138 6.173371 C36.690715 6.162907 17.050062 6.145307 -2.590592 6.123048 C-2.97278 4.466901 -3.304543 2.798478 -3.590592 1.123048 C-2.590592 0.123048 -2.590592 0.123048 0 0 Z " fill="#1BBACC" transform="translate(124.59059238433838,701.8769521713257)"/>
<path d="M0 0 C0.578425 0.000461 0.578425 0.000461 3.505607 0.002793 C4.147579 0.001939 4.789551 0.001084 5.450977 0.000204 C7.617566 -0.001452 9.784078 0.004074 11.95066 0.009522 C13.497586 0.009804 15.044512 0.009647 16.591437 0.00908 C20.804065 0.008792 25.016665 0.014689 29.229286 0.021654 C33.626883 0.027887 38.02448 0.028491 42.42208 0.029679 C50.75543 0.032793 59.088767 0.041007 67.422111 0.051029 C76.906838 0.062189 86.391564 0.0677 95.876295 0.072724 C115.392546 0.083189 134.908784 0.100789 154.425025 0.123048 C154.807213 1.779194 155.138976 3.447618 155.425025 5.123048 C154.425025 6.123048 154.425025 6.123048 151.85005 6.246096 C151.271625 6.245635 151.271625 6.245635 148.344443 6.243302 C148.023457 6.24373 148.023457 6.24373 146.399073 6.245892 C144.232484 6.247548 142.065972 6.242022 139.89939 6.236573 C138.352464 6.236291 136.805538 6.236449 135.258613 6.237016 C131.045985 6.237304 126.833385 6.231406 122.620764 6.224442 C118.223167 6.218209 113.82557 6.217604 109.42797 6.216416 C101.09462 6.213303 92.761283 6.205089 84.427939 6.195067 C74.943212 6.183906 65.458486 6.178395 55.973755 6.173371 C36.457504 6.162907 16.941266 6.145307 -2.574975 6.123048 C-2.957163 4.466901 -3.288926 2.798478 -3.574975 1.123048 C-2.574975 0.123048 -2.574975 0.123048 0 0 Z " fill="#0CB6C9" transform="translate(994.5749750137329,701.8769521713257)"/>
<path d="M0 0 C0.66 0 1.32 0 2 0 C2.314531 0.917812 2.629063 1.835625 2.953125 2.78125 C3.381094 4.008438 3.809062 5.235625 4.25 6.5 C4.667656 7.706563 5.085312 8.913125 5.515625 10.15625 C6.763582 13.552017 8.319693 16.717823 9.969727 19.933594 C11.731834 23.46783 13.240428 27.102408 14.75 30.75 C15.06582 31.491211 15.381641 32.232422 15.707031 32.996094 C15.855918 33.355098 15.855918 33.355098 16.609375 35.171875 C16.877178 35.812217 17.14498 36.452559 17.420898 37.112305 C18 39 18 39 18 43 C6.78 43 -4.44 43 -16 43 C-15.29174 38.750438 -14.778193 36.027103 -13.1875 32.25 C-12.827852 31.38375 -12.468203 30.5175 -12.097656 29.625 C-11.73543 28.75875 -11.373203 27.8925 -11 27 C-10.372749 25.417557 -9.747745 23.834222 -9.125 22.25 C-6.945838 16.789073 -4.60827 11.397807 -2.269531 6.003906 C-1 3 -1 3 0 0 Z " fill="#F2F3F7" transform="translate(541,534)"/>
<path d="M0 0 C1.65 0 3.3 0 5 0 C5 5.94 5 11.88 5 18 C5.66 18 6.32 18 7 18 C7 17.34 7 16.68 7 16 C11.455549 13.393352 15.095592 13.773898 20 15 C23.291106 17.100706 24.833385 18.750078 27 22 C27.821073 27.598222 27.204036 32.249188 24 37 C21.767402 39.495257 20.194423 40.806721 16.851562 41.347656 C12.074217 41.530179 8.891494 41.01277 5 38 C5 38.99 5 39.98 5 41 C3.35 41 1.7 41 0 41 C0 27.47 0 13.94 0 0 Z " fill="#1C316C" transform="translate(319,683)"/>
<path d="M0 0 C7 0 7 0 9.082031 1.84375 C9.653086 2.720312 10.224141 3.596875 10.8125 4.5 C11.468633 5.486133 12.124766 6.472266 12.800781 7.488281 C13.5362 8.657382 14.269072 9.828086 15 11 C15.909888 12.43116 16.820058 13.862141 17.730469 15.292969 C20.192014 19.17324 22.590851 23.085133 25 27 C25.33 18.09 25.66 9.18 26 0 C27.98 0 29.96 0 32 0 C32 12.21 32 24.42 32 37 C24 37 24 37 22.177246 35.582275 C21.796489 34.927351 21.415732 34.272427 21.023438 33.597656 C20.58 32.87127 20.136562 32.144883 19.679688 31.396484 C19.249141 30.62627 18.818594 29.856055 18.375 29.0625 C17.487755 27.573756 16.599731 26.085476 15.710938 24.597656 C14.816328 23.08043 13.921719 21.563203 13 20 C11.02 17.03 9.04 14.06 7 11 C6.67 19.91 6.34 28.82 6 38 C4.02 38 2.04 38 0 38 C0 25.46 0 12.92 0 0 Z " fill="#122D66" transform="translate(838,686)"/>
<path d="M0 0 C8 0 8 0 9.715088 1.310059 C10.047585 1.916724 10.380083 2.523389 10.722656 3.148438 C11.116465 3.825195 11.510273 4.501953 11.916016 5.199219 C12.294355 5.917227 12.672695 6.635234 13.0625 7.375 C16.734738 13.902047 20.658356 19.797651 25 26 C25.33 17.42 25.66 8.84 26 0 C27.98 0 29.96 0 32 0 C32 12.21 32 24.42 32 37 C24 37 24 37 21.746582 34.936279 C21.459685 34.464039 21.459685 34.464039 20.007812 32.074219 C19.365859 31.050059 18.723906 30.025898 18.0625 28.970703 C17.423125 27.887246 16.78375 26.803789 16.125 25.6875 C15.462422 24.615645 14.799844 23.543789 14.117188 22.439453 C12.890805 20.451567 11.67615 18.456366 10.477051 16.451904 C9.364819 14.605599 8.195621 12.793431 7 11 C6.67 19.58 6.34 28.16 6 37 C4.02 37 2.04 37 0 37 C0 24.79 0 12.58 0 0 Z " fill="#16306C" transform="translate(633,686)"/>
<path d="M0 0 C1.65 0 3.3 0 5 0 C8.802057 7.336999 12.143275 14.807885 15.3125 22.4375 C15.766895 23.511934 16.221289 24.586367 16.689453 25.693359 C17.118066 26.721387 17.54668 27.749414 17.988281 28.808594 C18.375403 29.734705 18.762524 30.660815 19.161377 31.61499 C20 34 20 34 20 37 C18.02 37 16.04 37 14 37 C11 31.375 11 31.375 11 28 C8.195 28.165 8.195 28.165 -6 29 C-6.99 31.64 -7.98 34.28 -9 37 C-10.98 37 -12.96 37 -15 37 C-14.579173 29.956159 -11.618771 24.24361 -8.625 17.9375 C-8.3775 17.406084 -8.3775 17.406084 -7.125 14.716797 C-4.817007 9.776828 -2.475472 4.858324 0 0 Z " fill="#162E69" transform="translate(593,686)"/>
<path d="M0 0 C4.122248 2.061124 6.317473 3.740631 8 8 C8.68781 13.29454 8.654847 17.690307 6.25 22.5 C1.510553 27.766052 1.510553 27.766052 -2.042969 28.316406 C-6.100415 28.527094 -8.643312 28.165133 -12.375 26.4375 C-16.263763 22.826506 -17.897937 19.721692 -18.09375 14.5 C-17.777923 9.194107 -17.007298 5.771575 -13 2 C-8.743471 -0.837686 -4.997178 -0.637276 0 0 Z " fill="#F4F5F8" transform="translate(446,691)"/>
<path d="M0 0 C7.92 0 15.84 0 24 0 C24 1.98 24 3.96 24 6 C18.06 6 12.12 6 6 6 C6 8.97 6 11.94 6 15 C11.61 15 17.22 15 23 15 C23 16.98 23 18.96 23 21 C17.39 21 11.78 21 6 21 C6 24.63 6 28.26 6 32 C12.27 32 18.54 32 25 32 C25 33.65 25 35.3 25 37 C16.75 37 8.5 37 0 37 C0 24.79 0 12.58 0 0 Z " fill="#162F6B" transform="translate(534,686)"/>
<path d="M0 0 C1.98 0 3.96 0 6 0 C6 4.95 6 9.9 6 15 C10.271118 11.339042 14.274623 7.721011 18.0625 3.5625 C21.381616 0.151369 21.381616 0.151369 24.058594 -0.503906 C26 -0.5 26 -0.5 29 0 C29 0.66 29 1.32 29 2 C27.496094 3.480469 27.496094 3.480469 25.4375 5.1875 C21.413248 8.602017 17.6781 12.218453 14 16 C15.371812 19.024678 16.965357 21.288862 19.1875 23.75 C19.801094 24.43707 20.414688 25.124141 21.046875 25.832031 C21.691406 26.547461 22.335938 27.262891 23 28 C24.315692 29.476328 25.628337 30.955379 26.9375 32.4375 C27.524023 33.096211 28.110547 33.754922 28.714844 34.433594 C30 36 30 36 30 37 C23.111349 37.745525 23.111349 37.745525 20.279297 35.845703 C18.656818 34.219122 17.195348 32.535654 15.75 30.75 C14.745221 29.577757 13.740021 28.405874 12.734375 27.234375 C12.303506 26.710693 11.872637 26.187012 11.428711 25.647461 C9.717941 23.674755 7.846389 21.846389 6 20 C6 25.61 6 31.22 6 37 C4.02 37 2.04 37 0 37 C0 24.79 0 12.58 0 0 Z " fill="#0F2562" transform="translate(922,686)"/>
<path d="M0 0 C3.1875 1.625 3.1875 1.625 6.1875 3.625 C5.5275 4.945 4.8675 6.265 4.1875 7.625 C0.471508 7.825864 -0.584584 7.776944 -3.8125 5.625 C-8.480344 5.089346 -11.45053 4.894067 -15.25 7.8125 C-17.977194 10.805762 -18.633351 11.683713 -18.8125 15.625 C-18.884688 16.319805 -18.956875 17.014609 -19.03125 17.730469 C-19.317205 21.998342 -18.977992 24.299723 -17 28.1875 C-14.366416 30.911897 -11.955261 31.068615 -8.25 31.1875 C-4.080479 31.100755 -1.949706 30.393123 1.1875 27.625 C2.5075 28.285 3.8275 28.945 5.1875 29.625 C5.1875 30.945 5.1875 32.265 5.1875 33.625 C1.392561 37.419939 -1.548075 37.908043 -6.875 38 C-12.488538 37.927754 -16.226034 37.060374 -20.4375 33.25 C-25.73143 27.398815 -27.246319 23.384835 -27.152344 15.480469 C-26.518735 10.156698 -24.00431 6.54823 -20.027344 3.058594 C-13.807126 -1.576855 -7.23985 -3.043504 0 0 Z " fill="#19306C" transform="translate(738.8125,686.375)"/>
<path d="M0 0 C3.044443 1.671459 4.456118 2.796466 6.1875 5.75 C4.9375 7.3125 4.9375 7.3125 3.1875 8.75 C0.14579 8.46484 -1.202958 7.489695 -3.8125 5.75 C-10.485877 4.984203 -10.485877 4.984203 -13.632812 6.800781 C-16.830313 9.419024 -18.652681 11.224868 -19.085938 15.359375 C-19.394588 24.903796 -19.394588 24.903796 -17 28.5 C-12.961579 31.35065 -10.271529 31.354557 -5.433594 31.253906 C-2.483065 30.686666 -1.122061 29.60366 1.1875 27.75 C3.4375 28.0625 3.4375 28.0625 5.1875 28.75 C5.3525 29.41 5.3525 29.41 6.1875 32.75 C-0.350602 37.254026 -4.951122 38.566464 -12.8125 37.75 C-18.378536 36.15145 -21.713486 33.287513 -24.902344 28.53125 C-27.535536 23.377878 -27.771508 17.115691 -26.199219 11.597656 C-23.789774 6.067609 -19.945123 2.795848 -14.8125 -0.25 C-9.769646 -1.930951 -4.935449 -1.928074 0 0 Z " fill="#19306D" transform="translate(506.8125,686.25)"/>
<path d="M0 0 C1.98 0 3.96 0 6 0 C6.421523 1.071211 6.843047 2.142422 7.277344 3.246094 C7.830593 4.643283 8.383986 6.040416 8.9375 7.4375 C9.215293 8.144551 9.493086 8.851602 9.779297 9.580078 C11.886719 14.886719 11.886719 14.886719 13 16 C13.421523 14.928789 13.843047 13.857578 14.277344 12.753906 C14.830593 11.356717 15.383986 9.959584 15.9375 8.5625 C16.215293 7.855449 16.493086 7.148398 16.779297 6.419922 C18.886719 1.113281 18.886719 1.113281 20 0 C21.666171 -0.040638 23.333881 -0.042721 25 0 C22.874399 7.707856 20.120195 15.054506 17.0625 22.4375 C16.632598 23.511934 16.202695 24.586367 15.759766 25.693359 C15.547393 26.207373 15.547393 26.207373 14.472656 28.808594 C14.093752 29.734705 13.714849 30.660815 13.324463 31.61499 C11.863075 34.246566 10.561441 35.454984 8 37 C5.262863 37.374608 2.779744 37.138987 0 37 C0 35.68 0 34.36 0 33 C1.11375 32.7525 2.2275 32.505 3.375 32.25 C7 31 7 31 8.5 29.25 C9.903311 22.935099 6.422776 16.890161 3.9375 11.25 C3.193461 9.54825 2.45242 7.845186 1.714844 6.140625 C1.386052 5.393291 1.057261 4.645957 0.718506 3.875977 C0 2 0 2 0 0 Z " fill="#152B66" transform="translate(358,698)"/>
<path d="M0 0 C0.578425 0.000461 0.578425 0.000461 3.505607 0.002793 C4.147579 0.001939 4.789551 0.001084 5.450977 0.000204 C7.617566 -0.001452 9.784078 0.004074 11.95066 0.009522 C13.497586 0.009804 15.044512 0.009647 16.591437 0.00908 C20.804065 0.008792 25.016665 0.014689 29.229286 0.021654 C33.626883 0.027887 38.02448 0.028491 42.42208 0.029679 C50.75543 0.032793 59.088767 0.041007 67.422111 0.051029 C76.906838 0.062189 86.391564 0.0677 95.876295 0.072724 C115.392546 0.083189 134.908784 0.100789 154.425025 0.123048 C154.807213 1.779194 155.138976 3.447618 155.425025 5.123048 C154.425025 6.123048 154.425025 6.123048 151.85005 6.246096 C151.271625 6.245635 151.271625 6.245635 148.344443 6.243302 C148.023457 6.24373 148.023457 6.24373 146.399073 6.245892 C144.232484 6.247548 142.065972 6.242022 139.89939 6.236573 C138.352464 6.236291 136.805538 6.236449 135.258613 6.237016 C131.045985 6.237304 126.833385 6.231406 122.620764 6.224442 C118.223167 6.218209 113.82557 6.217604 109.42797 6.216416 C101.09462 6.213303 92.761283 6.205089 84.427939 6.195067 C74.943212 6.183906 65.458486 6.178395 55.973755 6.173371 C36.457504 6.162907 16.941266 6.145307 -2.574975 6.123048 C-2.957163 4.466901 -3.288926 2.798478 -3.574975 1.123048 C-2.574975 0.123048 -2.574975 0.123048 0 0 Z M-1.574975 2.123048 C-1.244975 3.113048 -0.914975 4.103048 -0.574975 5.123048 C49.915025 5.123048 100.405025 5.123048 152.425025 5.123048 C152.755025 3.803048 153.085025 2.483048 153.425025 1.123048 C134.101465 1.099684 114.777907 1.082051 95.454335 1.071236 C86.481995 1.06608 77.509664 1.059052 68.53733 1.047608 C60.716708 1.037639 52.896094 1.031189 45.075466 1.028959 C40.934835 1.027656 36.794223 1.024595 32.653598 1.017318 C28.754887 1.010521 24.856202 1.008438 20.957486 1.00994 C19.528054 1.009665 18.098621 1.007682 16.669194 1.003842 C14.713859 0.998849 12.758509 1.000663 10.803168 1.002793 C9.709922 1.001872 8.616675 1.00095 7.4903 1 C4.392513 1.124353 1.468497 1.546865 -1.574975 2.123048 Z " fill="#37C2D1" transform="translate(994.5749750137329,701.8769521713257)"/>
<path d="M0 0 C0.42036 0.000038 0.42036 0.000038 2.547638 0.000229 C3.001826 0.00281 3.001826 0.00281 5.300293 0.015869 C6.229697 0.017284 7.159101 0.018699 8.116669 0.020157 C11.091972 0.025765 14.0672 0.038319 17.04248 0.051025 C19.056802 0.056039 21.071125 0.060602 23.085449 0.064697 C28.029488 0.075737 32.973472 0.093007 37.91748 0.113525 C37.91748 0.443525 37.91748 0.773525 37.91748 1.113525 C36.26748 1.443525 34.61748 1.773525 32.91748 2.113525 C32.91748 2.443525 32.91748 2.773525 32.91748 3.113525 C20.70748 3.113525 8.49748 3.113525 -4.08252 3.113525 C-9.562901 14.074289 -7.295219 30.501575 -7.398926 42.605713 C-7.419544 44.64837 -7.440541 46.691023 -7.461899 48.733673 C-7.51662 54.063262 -7.566246 59.392886 -7.614746 64.722534 C-7.66533 70.179719 -7.720822 75.636853 -7.775879 81.093994 C-7.882847 91.767128 -7.984424 102.440306 -8.08252 113.113525 C-8.74252 112.783525 -9.40252 112.453525 -10.08252 112.113525 C-10.175201 98.526909 -10.246275 84.940367 -10.289768 71.353498 C-10.310643 65.044553 -10.338958 58.735823 -10.384277 52.427002 C-10.427739 46.338613 -10.451658 40.250432 -10.462029 34.1619 C-10.469419 31.839059 -10.483851 29.51623 -10.50544 27.193478 C-10.534477 23.939851 -10.538475 20.687085 -10.536621 17.43335 C-10.551002 16.473094 -10.565383 15.512838 -10.5802 14.523483 C-10.544614 8.75237 -9.90538 5.521483 -6.08252 1.113525 C-3.796205 -0.029632 -2.539045 -0.007602 0 0 Z " fill="#FDC24A" transform="translate(1002.08251953125,503.886474609375)"/>
<path d="M0 0 C1.98 0 3.96 0 6 0 C6 10.56 6 21.12 6 32 C11.28 32 16.56 32 22 32 C22 33.65 22 35.3 22 37 C14.74 37 7.48 37 0 37 C0 24.79 0 12.58 0 0 Z " fill="#132B68" transform="translate(766,686)"/>
<path d="M0 0 C18.48 0 36.96 0 56 0 C56 0.99 56 1.98 56 3 C43.46 3 30.92 3 18 3 C18 2.34 18 1.68 18 1 C17.34 1.66 16.68 2.32 16 3 C13.433594 3.378906 13.433594 3.378906 10.4375 3.5625 C5.097222 3.902778 5.097222 3.902778 4 5 C4 11.6 4 18.2 4 25 C18.19 25 32.38 25 47 25 C47 25.66 47 26.32 47 27 C40.467212 27.02527 33.934437 27.042833 27.401611 27.054932 C25.177323 27.059973 22.953037 27.066806 20.72876 27.075439 C17.539217 27.087513 14.349718 27.09323 11.160156 27.097656 C10.65964 27.100237 10.65964 27.100237 8.126724 27.113297 C7.205845 27.113372 6.284966 27.113448 5.336182 27.113525 C4.928699 27.114636 4.928699 27.114636 2.866592 27.120255 C1 27 1 27 0 26 C0 17.42 0 8.84 0 0 Z " fill="#F0F2F7" transform="translate(386,526)"/>
<path d="M0 0 C2.31 0 4.62 0 7 0 C7 12.54 7 25.08 7 38 C5.02 38 3.04 38 1 38 C0 37 0 37 -0.113525 33.48999 C-0.113366 31.929516 -0.107671 30.369036 -0.097656 28.808594 C-0.096241 27.988755 -0.094826 27.168916 -0.093369 26.324234 C-0.087753 23.695286 -0.075198 21.066422 -0.0625 18.4375 C-0.057487 16.659506 -0.052924 14.881512 -0.048828 13.103516 C-0.037778 8.735645 -0.020503 4.367837 0 0 Z " fill="#2D437C" transform="translate(808,686)"/>
<path d="M0 0 C0.33 1.32 0.66 2.64 1 4 C5.29 4 9.58 4 14 4 C14.33 3.34 14.66 2.68 15 2 C15.99 2 16.98 2 18 2 C18.33 2.66 18.66 3.32 19 4 C19.66 4 20.32 4 21 4 C21.67305 5.601499 22.338222 7.20631 23 8.8125 C23.37125 9.70582 23.7425 10.599141 24.125 11.519531 C25 14 25 14 25 17 C23.02 17 21.04 17 19 17 C16 11.375 16 11.375 16 8 C13.195 8.165 13.195 8.165 -1 9 C-1.99 11.64 -2.98 14.28 -4 17 C-5.98 17 -7.96 17 -10 17 C-9.125 10.25 -9.125 10.25 -8 8 C-7.01 8 -6.02 8 -5 8 C-4.731875 7.236875 -4.46375 6.47375 -4.1875 5.6875 C-3.055759 3.126191 -2.087766 1.803071 0 0 Z " fill="#0E2662" transform="translate(588,706)"/>
<path d="M0 0 C2.4375 1.4375 2.4375 1.4375 4 4 C4.767262 8.310907 4.733401 11.747106 2.5 15.5625 C-1.034758 17.594986 -4.023407 17.928958 -8 17 C-11.249859 14.318866 -11.89575 12.648666 -12.5625 8.5 C-12 5 -12 5 -9.9375 2.0625 C-6.259375 -0.520013 -4.407681 -0.721257 0 0 Z " fill="#EFF1F5" transform="translate(336,702)"/>
<path d="M0 0 C1.98 0 3.96 0 6 0 C6 12.21 6 24.42 6 37 C4.02 37 2.04 37 0 37 C0 24.79 0 12.58 0 0 Z " fill="#132B65" transform="translate(893,686)"/>
<path d="M0 0 C7.92 0 15.84 0 24 0 C24 1.98 24 3.96 24 6 C18.06 6 12.12 6 6 6 C6 8.97 6 11.94 6 15 C5.67 15 5.34 15 5 15 C4.67 13.02 4.34 11.04 4 9 C2.196051 10.803949 2.762942 13.566778 2.683594 16.003906 C2.641699 17.218848 2.599805 18.433789 2.556641 19.685547 C2.536982 20.325244 2.536982 20.325244 2.4375 23.5625 C2.394316 24.845762 2.351133 26.129023 2.306641 27.451172 C2.200152 30.633999 2.09814 33.816907 2 37 C1.34 37 0.68 37 0 37 C0 24.79 0 12.58 0 0 Z " fill="#1E306D" transform="translate(534,686)"/>
<path d="M0 0 C3.865502 2.577001 5.637289 4.540217 7 9 C6.502422 9.362227 6.004844 9.724453 5.492188 10.097656 C2.822142 13.501615 4.072991 17.744838 4.382812 21.871094 C4 25 4 25 1.492188 27.410156 C0.669766 27.934805 -0.152656 28.459453 -1 29 C-1.66 28.67 -2.32 28.34 -3 28 C-2.34 27.236875 -1.68 26.47375 -1 25.6875 C1.988778 21.246726 1.668985 16.149631 1 11 C-0.068698 8.351488 -0.833961 7.145284 -3 5.25 C-7.285257 3.464476 -11.413718 3.425783 -16 4 C-18.308594 5.019531 -18.308594 5.019531 -20 6 C-20.99 5.34 -21.98 4.68 -23 4 C-23.99 4 -24.98 4 -26 4 C-17.715602 -3.321096 -10.225938 -5.402383 0 0 Z " fill="#1D3676" transform="translate(452,688)"/>
<path d="M0 0 C7 0 7 0 8.777344 1.53125 C9.160195 2.180938 9.543047 2.830625 9.9375 3.5 C10.338398 4.149688 10.739297 4.799375 11.152344 5.46875 C11.43207 5.974062 11.711797 6.479375 12 7 C11.67 7.165 11.67 7.165 10 8 C10 7.34 10 6.68 10 6 C9.34 6 8.68 6 8 6 C7.67 6.99 7.34 7.98 7 9 C6.34 9 5.68 9 5 9 C5 18.24 5 27.48 5 37 C3.35 37 1.7 37 0 37 C0 24.79 0 12.58 0 0 Z " fill="#092260" transform="translate(838,686)"/>
<path d="M0 0 C1.65 0 3.3 0 5 0 C5 5.94 5 11.88 5 18 C5.66 18 6.32 18 7 18 C7 17.34 7 16.68 7 16 C11.444351 13.399903 15.107762 13.755178 20 15 C23.0625 17.0625 23.0625 17.0625 25 19 C24.67 20.32 24.34 21.64 24 23 C19.25 22.25 19.25 22.25 17 20 C13.201224 19.648261 10.856398 19.472986 7.5625 21.5 C7.046875 21.995 6.53125 22.49 6 23 C6 22.01 6 21.02 6 20 C4.046875 20.957031 4.046875 20.957031 2 23 C1.337224 25.87941 1.303172 28.741312 1.25 31.6875 C1.220352 32.484785 1.190703 33.28207 1.160156 34.103516 C1.089559 36.068467 1.042503 38.03424 1 40 C2.32 40.33 3.64 40.66 5 41 C3.35 41 1.7 41 0 41 C0 27.47 0 13.94 0 0 Z " fill="#2B4176" transform="translate(319,683)"/>
<path d="M0 0 C0 0.66 0 1.32 0 2 C0.99 2 1.98 2 3 2 C4.350342 3.560547 4.350342 3.560547 5.699219 5.71875 C5.942529 6.102246 5.942529 6.102246 7.173828 8.042969 C7.67334 8.853789 8.172852 9.664609 8.6875 10.5 C9.198613 11.31082 9.709727 12.121641 10.236328 12.957031 C11.500532 14.965579 12.754467 16.97984 14 19 C13.34 19.66 12.68 20.32 12 21 C11.34 20.67 10.68 20.34 10 20 C9.67 21.32 9.34 22.64 9 24 C8.853772 23.765511 8.853772 23.765511 8.11377 22.578857 C6.784654 20.448108 5.454835 18.3178 4.125 16.1875 C3.664805 15.449512 3.204609 14.711523 2.730469 13.951172 C2.285742 13.238965 1.841016 12.526758 1.382812 11.792969 C0.974341 11.138367 0.565869 10.483765 0.14502 9.809326 C-0.879283 8.190753 -1.937496 6.593756 -3 5 C-3.33 13.91 -3.66 22.82 -4 32 C-5.98 32 -7.96 32 -10 32 C-10 31.67 -10 31.34 -10 31 C-8.35 31 -6.7 31 -5 31 C-5.01571 30.167507 -5.031421 29.335015 -5.047607 28.477295 C-5.098766 25.385521 -5.136365 22.293964 -5.164795 19.201904 C-5.187283 17.206723 -5.225402 15.211738 -5.263672 13.216797 C-5.268506 12.58999 -5.268506 12.58999 -5.292969 9.417969 C-5.308679 8.260632 -5.32439 7.103296 -5.340576 5.910889 C-5 3 -5 3 -3.606689 1.098877 C-2 0 -2 0 0 0 Z " fill="#213771" transform="translate(848,692)"/>
<path d="M0 0 C1.336822 -0.014434 2.674117 -0.001328 4.010559 0.033646 C4.742661 0.032915 5.474763 0.032185 6.22905 0.031433 C8.642982 0.03491 11.054972 0.073771 13.468567 0.112991 C15.144358 0.122319 16.820162 0.129435 18.495972 0.13443 C22.902199 0.153502 27.3076 0.202603 31.713501 0.25795 C36.21117 0.309139 40.708972 0.331943 45.206848 0.357132 C54.028826 0.410722 62.85019 0.496037 71.671692 0.601273 C71.341692 1.591273 71.011692 2.581273 70.671692 3.601273 C69.768245 3.61158 68.864799 3.621888 67.933975 3.632507 C59.414822 3.730534 50.895737 3.833056 42.376698 3.940612 C37.997109 3.995748 33.617512 4.049152 29.237854 4.098587 C25.0103 4.146369 20.782824 4.198716 16.555365 4.254213 C14.943478 4.274574 13.33157 4.293298 11.719645 4.310347 C9.459847 4.334529 7.200198 4.364564 4.940491 4.39595 C4.297624 4.403722 4.297624 4.403722 1.044327 4.443054 C-1.872454 4.579887 -4.494997 4.926542 -7.328308 5.601273 C-5.141618 2.104825 -4.144193 0.748666 0 0 Z " fill="#243972" transform="translate(372.32830810546875,503.3987274169922)"/>
<path d="M0 0 C0.66 0 1.32 0 2 0 C2 8.25 2 16.5 2 25 C16.85 25 31.7 25 47 25 C47 25.66 47 26.32 47 27 C40.467212 27.02527 33.934437 27.042833 27.401611 27.054932 C25.177323 27.059973 22.953037 27.066806 20.72876 27.075439 C17.539217 27.087513 14.349718 27.09323 11.160156 27.097656 C10.65964 27.100237 10.65964 27.100237 8.126724 27.113297 C7.205845 27.113372 6.284966 27.113448 5.336182 27.113525 C4.928699 27.114636 4.928699 27.114636 2.866592 27.120255 C1 27 1 27 0 26 C-0.087482 24.073325 -0.106973 22.143481 -0.097656 20.214844 C-0.094434 19.04502 -0.091211 17.875195 -0.087891 16.669922 C-0.079512 15.438223 -0.071133 14.206523 -0.0625 12.9375 C-0.057988 11.701934 -0.053477 10.466367 -0.048828 9.193359 C-0.036996 6.128859 -0.020512 3.064453 0 0 Z " fill="#CFD5E1" transform="translate(386,526)"/>
<path d="M0 0 C0.33 0 0.66 0 1 0 C1 9.24 1 18.48 1 28 C-0.65 28 -2.3 28 -4 28 C-4.054325 24.978921 -4.093829 21.958835 -4.125 18.9375 C-4.141758 18.089941 -4.158516 17.242383 -4.175781 16.369141 C-4.215905 11.173133 -3.817754 6.887596 -2 2 C-1.34 1.34 -0.68 0.68 0 0 Z " fill="#0B2A61" transform="translate(637,695)"/>
<path d="M0 0 C1.32 0 2.64 0 4 0 C4 11.88 4 23.76 4 36 C3.67 36 3.34 36 3 36 C2.67 32.37 2.34 28.74 2 25 C1.34 25.33 0.68 25.66 0 26 C0 17.42 0 8.84 0 0 Z " fill="#021A5A" transform="translate(660,687)"/>
<path d="M0 0 C0.99 0 1.98 0 3 0 C2.67 35.31 2.34 70.62 2 107 C1.67 107 1.34 107 1 107 C0.835 89.345 0.835 89.345 0 0 Z " fill="#0E2C6D" transform="translate(364,509)"/>
<path d="M0 0 C0.99 0.66 1.98 1.32 3 2 C2.795039 2.568477 2.590078 3.136953 2.378906 3.722656 C0.709073 8.508445 -0.463769 12.959432 -1 18 C-2.98 18.33 -4.96 18.66 -7 19 C-7.577342 6.982727 -7.577342 6.982727 -4 2 C-1.8125 0.625 -1.8125 0.625 0 0 Z " fill="#182F66" transform="translate(429,691)"/>
<path d="M0 0 C3.044443 1.671459 4.456118 2.796466 6.1875 5.75 C4.9375 7.3125 4.9375 7.3125 3.1875 8.75 C1.25 8.6875 1.25 8.6875 -0.8125 7.75 C-1.39 7.09 -1.9675 6.43 -2.5625 5.75 C-6.694433 2.07717 -12.484693 2.583506 -17.8125 2.75 C-13.08958 -2.422722 -6.261679 -2.446176 0 0 Z " fill="#2A3F77" transform="translate(506.8125,686.25)"/>
<path d="M0 0 C1.98 0 3.96 0 6 0 C5.67 5.28 5.34 10.56 5 16 C4.67 16 4.34 16 4 16 C4 11.38 4 6.76 4 2 C3.34 2 2.68 2 2 2 C2 13.55 2 25.1 2 37 C1.34 37 0.68 37 0 37 C0 24.79 0 12.58 0 0 Z " fill="#20326F" transform="translate(922,686)"/>
<path d="M0 0 C0.33 0 0.66 0 1 0 C1.33 6.6 1.66 13.2 2 20 C2.99 19.67 3.98 19.34 5 19 C4.886556 21.146475 4.758937 23.292206 4.625 25.4375 C4.555391 26.632461 4.485781 27.827422 4.414062 29.058594 C4.277422 30.029258 4.140781 30.999922 4 32 C3.67 32.165 3.67 32.165 2 33 C1.67 33.99 1.34 34.98 1 36 C1.66 36 2.32 36 3 36 C3 35.01 3 34.02 3 33 C3.99 33.33 4.98 33.66 6 34 C6 34.66 6 35.32 6 36 C5.34 36 4.68 36 4 36 C4 36.99 4 37.98 4 39 C2.68 39 1.36 39 0 39 C0 26.13 0 13.26 0 0 Z " fill="#021658" transform="translate(320,684)"/>
<path d="M0 0 C0.66 0 1.32 0 2 0 C2.837643 1.956494 3.669991 3.915256 4.5 5.875 C4.964062 6.965547 5.428125 8.056094 5.90625 9.179688 C7 12 7 12 7 14 C3.04 14 -0.92 14 -5 14 C-3.35 9.38 -1.7 4.76 0 0 Z " fill="#E9EBF1" transform="translate(594,695)"/>
<path d="M0 0 C0.66 0 1.32 0 2 0 C3.032753 2.266071 4.051336 4.536819 5.0625 6.8125 C5.357051 7.455098 5.651602 8.097695 5.955078 8.759766 C8.113281 13.660156 8.113281 13.660156 7 17 C5.68 16.34 4.36 15.68 3 15 C2.67 15.33 2.34 15.66 2 16 C-0.186395 16.072589 -2.375004 16.083738 -4.5625 16.0625 C-5.16127 16.057988 -5.16127 16.057988 -8.191406 16.035156 C-9.118242 16.023555 -10.045078 16.011953 -11 16 C-11 15.67 -11 15.34 -11 15 C-7.04 15 -3.08 15 1 15 C0.01 12.36 -0.98 9.72 -2 7 C-1.34 7 -0.68 7 0 7 C-0.33 6.01 -0.66 5.02 -1 4 C-0.5625 1.8125 -0.5625 1.8125 0 0 Z " fill="#16306E" transform="translate(600,694)"/>
<path d="M0 0 C4.592169 4.06735 7.216791 8.563859 10 14 C9.67 14.165 9.67 14.165 8 15 C7.375 17.0625 7.375 17.0625 7 19 C-0.860031 9.455677 -0.860031 9.455677 -1.3125 4.75 C-1 2 -1 2 0 0 Z " fill="#122963" transform="translate(647,698)"/>
<path d="M0 0 C1.32 0.66 2.64 1.32 4 2 C4 3.32 4 4.64 4 6 C0.978455 9.021545 -0.784532 9.901031 -5.070312 10.25 C-8.057268 10.25 -11.018433 10.173684 -14 10 C-13.67 9.01 -13.34 8.02 -13 7 C-11.845 6.835 -11.845 6.835 -6 6 C-8.31 5.67 -10.62 5.34 -13 5 C-13 4.67 -13 4.34 -13 4 C-12.396719 3.962617 -11.793437 3.925234 -11.171875 3.886719 C-3.233743 3.233743 -3.233743 3.233743 0 0 Z " fill="#395084" transform="translate(740,714)"/>
<path d="M0 0 C5.94 0 11.88 0 18 0 C18 1.32 18 2.64 18 4 C10.74 4 3.48 4 -4 4 C-4 3.34 -4 2.68 -4 2 C-2.68 2 -1.36 2 0 2 C0 1.34 0 0.68 0 0 Z " fill="#061F64" transform="translate(540,719)"/>
<path d="M0 0 C1.32 1.32 2.64 2.64 4 4 C3.67 4.165 3.67 4.165 2 5 C1.67 27.11 1.34 49.22 1 72 C0.67 72 0.34 72 0 72 C0 48.24 0 24.48 0 0 Z " fill="#E5EAF0" transform="translate(654,544)"/>
<path d="M0 0 C0.381562 0.391875 0.381562 0.391875 2.3125 2.375 C5.776789 5.758724 7.930307 7.211331 12.6875 7.625 C13.091621 7.662383 13.091621 7.662383 15.136719 7.851562 C15.751602 7.900547 16.366484 7.949531 17 8 C16.34 8.66 15.68 9.32 15 10 C15.99 10.66 16.98 11.32 18 12 C16.229251 12.027057 14.458383 12.046422 12.6875 12.0625 C11.701367 12.074102 10.715234 12.085703 9.699219 12.097656 C7 12 7 12 4 11 C4 10.34 4 9.68 4 9 C3.175 8.67 3.175 8.67 -1 7 C-1.042544 5.000453 -1.040808 2.999584 -1 1 C-0.67 0.67 -0.34 0.34 0 0 Z " fill="#0B2361" transform="translate(719,711)"/>
<path d="M0 0 C1.251803 4.219191 0.672524 7.960886 0.0625 12.25 C-0.037402 12.995078 -0.137305 13.740156 -0.240234 14.507812 C-0.486802 16.339454 -0.742504 18.169863 -1 20 C-0.175 20.33 -0.175 20.33 4 22 C4 22.66 4 23.32 4 24 C4.99 24.33 5.98 24.66 7 25 C2.136345 24.583115 0.170619 22.587805 -3 19 C-6.454716 14.804987 -7.125951 11.705873 -7.0625 6.3125 C-7.053477 5.318633 -7.044453 4.324766 -7.035156 3.300781 C-7.023555 2.541523 -7.011953 1.782266 -7 1 C-6.67 1 -6.34 1 -6 1 C-6 4.3 -6 7.6 -6 11 C-5.34 11 -4.68 11 -4 11 C-1.687052 8.687052 -1.50419 7.520951 -0.875 4.375 C-0.791211 3.966367 -0.791211 3.966367 -0.367188 1.898438 C-0.246016 1.271953 -0.124844 0.645469 0 0 Z " fill="#324679" transform="translate(719,698)"/>
<path d="M0 0 C1.79134 -0.05392 3.583139 -0.092756 5.375 -0.125 C6.372734 -0.148203 7.370469 -0.171406 8.398438 -0.195312 C11 0 11 0 13 2 C15.164062 2.414062 15.164062 2.414062 17.625 2.625 C18.442266 2.699766 19.259531 2.774531 20.101562 2.851562 C20.728047 2.900547 21.354531 2.949531 22 3 C22 3.33 22 3.66 22 4 C16.06 4 10.12 4 4 4 C4 6.97 4 9.94 4 13 C3.67 13 3.34 13 3 13 C2.67 11.02 2.34 9.04 2 7 C1.67 7.165 1.67 7.165 0 8 C0 5.36 0 2.72 0 0 Z " fill="#30497F" transform="translate(536,688)"/>
<path d="M0 0 C0.33 0 0.66 0 1 0 C1.125 2.375 1.125 2.375 1 5 C0.34 5.66 -0.32 6.32 -1 7 C-1.417024 10.961726 -0.868708 12.262584 1 16 C1.66 13.03 2.32 10.06 3 7 C3.33 7 3.66 7 4 7 C4 11.29 4 15.58 4 20 C3.34 20.33 3.34 20.33 0 22 C-2.763818 16.587524 -3.859764 12.084487 -3 6 C-1.5 2.4375 -1.5 2.4375 0 0 Z " fill="#32487E" transform="translate(483,694)"/>
<path d="M0 0 C0.99 0.33 1.98 0.66 3 1 C3.054229 2.437081 3.092897 3.874755 3.125 5.3125 C3.148203 6.113008 3.171406 6.913516 3.195312 7.738281 C3 10 3 10 1 13 C1 12.34 1 11.68 1 11 C0.01 11.33 -0.98 11.66 -2 12 C-3 11 -3 11 -3.097656 8.714844 C-3.086055 7.79832 -3.074453 6.881797 -3.0625 5.9375 C-3.053477 5.018398 -3.044453 4.099297 -3.035156 3.152344 C-3.023555 2.44207 -3.011953 1.731797 -3 1 C-2.01 1.33 -1.02 1.66 0 2 C0 1.34 0 0.68 0 0 Z " fill="#223772" transform="translate(343,704)"/>
<path d="M0 0 C1.32 0 2.64 0 4 0 C4 4.29 4 8.58 4 13 C4.66 13.33 5.32 13.66 6 14 C5.67 14.495 5.67 14.495 4 17 C4.66 17.33 5.32 17.66 6 18 C4.02 17.67 2.04 17.34 0 17 C0 11.39 0 5.78 0 0 Z " fill="#133068" transform="translate(924,688)"/>
<path d="M0 0 C0.33 0 0.66 0 1 0 C1 9.24 1 18.48 1 28 C-0.65 28 -2.3 28 -4 28 C-4 21.73 -4 15.46 -4 9 C-3.67 9 -3.34 9 -3 9 C-2.67 14.61 -2.34 20.22 -2 26 C-1.34 26 -0.68 26 0 26 C0 17.42 0 8.84 0 0 Z " fill="#061C5C" transform="translate(637,695)"/>
<path d="M0 0 C6.246753 6.077922 6.246753 6.077922 8 9 C7.67 9.99 7.34 10.98 7 12 C1.494118 11.510588 1.494118 11.510588 -0.875 9.0625 C-2 7 -2 7 -2 5 C-1.34 4.67 -0.68 4.34 0 4 C0 2.68 0 1.36 0 0 Z " fill="#12255C" transform="translate(486,710)"/>
<path d="M0 0 C1.98552 2.216992 2.960734 3.45966 3.179688 6.472656 C3.079141 7.327305 2.978594 8.181953 2.875 9.0625 C2.832461 9.491113 2.832461 9.491113 2.617188 11.660156 C1.925401 14.282817 1.065887 15.297039 -1 17 C-2.814267 13.929702 -3.209012 12.027142 -2.75 8.5 C-2.706172 8.123594 -2.706172 8.123594 -2.484375 6.21875 C-1.975951 3.889842 -1.152181 2.077703 0 0 Z " fill="#08215A" transform="translate(484,694)"/>
<path d="M0 0 C0.33 0.66 0.66 1.32 1 2 C3.0625 2.625 3.0625 2.625 5 3 C1.143763 7.820296 1.143763 7.820296 -2.113281 8.332031 C-4.078562 8.314578 -6.041661 8.165961 -8 8 C-8 6.68 -8 5.36 -8 4 C-6.865625 3.71125 -5.73125 3.4225 -4.5625 3.125 C-3.386875 2.75375 -2.21125 2.3825 -1 2 C-0.67 1.34 -0.34 0.68 0 0 Z " fill="#1A2E6A" transform="translate(366,727)"/>
<path d="M0 0 C1.98 0 3.96 0 6 0 C7.836913 3.781879 8.158376 5.945683 7 10 C6.34 10 5.68 10 5 10 C4.67 10.66 4.34 11.32 4 12 C3.329129 10.376731 2.66343 8.751324 2 7.125 C1.62875 6.220078 1.2575 5.315156 0.875 4.382812 C0 2 0 2 0 0 Z " fill="#182E68" transform="translate(358,698)"/>
<path d="M0 0 C1.65 0 3.3 0 5 0 C4.67 3.63 4.34 7.26 4 11 C3.01 11.33 2.02 11.66 1 12 C0.34 11.67 -0.32 11.34 -1 11 C-1.026882 9.354254 -1.046341 7.708386 -1.0625 6.0625 C-1.074102 5.145977 -1.085703 4.229453 -1.097656 3.285156 C-1 1 -1 1 0 0 Z " fill="#071F59" transform="translate(714,698)"/>
<path d="M0 0 C0 0.66 0 1.32 0 2 C-1.355469 3.183594 -1.355469 3.183594 -3.1875 4.4375 C-3.504609 4.655352 -3.504609 4.655352 -5.109375 5.757812 C-7.367547 7.241488 -9.658431 8.651824 -12 10 C-12.65625 8.203125 -12.65625 8.203125 -13 6 C-9.941449 0.62287 -6.037565 -0.724508 0 0 Z " fill="#122A6C" transform="translate(951,686)"/>
<path d="M0 0 C0 0.33 0 0.66 0 1 C-2.31 1.33 -4.62 1.66 -7 2 C-4.69 2.33 -2.38 2.66 0 3 C-1 5 -1 5 -4.25 6.1875 C-7.772092 6.95062 -9.616805 7.025211 -13 6 C-13 4.68 -13 3.36 -13 2 C-8.503439 -0.248281 -4.92127 -0.166823 0 0 Z " fill="#263F75" transform="translate(735,685)"/>
<path d="M0 0 C0.99 0.33 1.98 0.66 3 1 C3 3.97 3 6.94 3 10 C1.35 10.33 -0.3 10.66 -2 11 C-2 7.7 -2 4.4 -2 1 C-1.34 0.67 -0.68 0.34 0 0 Z " fill="#081F58" transform="translate(425,699)"/>
<path d="M0 0 C0.33 0 0.66 0 1 0 C1 3.63 1 7.26 1 11 C7.27 11 13.54 11 20 11 C20 12.65 20 14.3 20 16 C19.67 14.68 19.34 13.36 19 12 C13.06 12 7.12 12 1 12 C1 12.66 1 13.32 1 14 C0.01 14 -0.98 14 -2 14 C-2 12.35 -2 10.7 -2 9 C-1.67 9 -1.34 9 -1 9 C-0.67 6.03 -0.34 3.06 0 0 Z " fill="#223670" transform="translate(539,707)"/>
<path d="M0 0 C0.496934 0.009023 0.496934 0.009023 3.011719 0.054688 C3.770977 0.077891 4.530234 0.101094 5.3125 0.125 C4.9825 0.62 4.9825 0.62 3.3125 3.125 C1.282225 3.382813 -0.749809 3.635589 -2.789062 3.808594 C-5.232114 4.215769 -6.13976 5.25142 -7.6875 7.125 C-8.6775 7.125 -9.6675 7.125 -10.6875 7.125 C-8.618463 1.077047 -6.282157 -0.147815 0 0 Z " fill="#243873" transform="translate(725.6875,503.875)"/>
<path d="M0 0 C0 0.33 0 0.66 0 1 C-3.3 1.33 -6.6 1.66 -10 2 C-10 3.98 -10 5.96 -10 8 C-10.99 8.33 -11.98 8.66 -13 9 C-13.99 8.34 -14.98 7.68 -16 7 C-16.99 7 -17.98 7 -19 7 C-12.635934 1.375942 -8.519775 -0.288806 0 0 Z " fill="#344A80" transform="translate(445,685)"/>
<path d="M0 0 C0.66 0.66 1.32 1.32 2 2 C-7.410023 5.259681 -7.410023 5.259681 -12 6 C-11.67 4.35 -11.34 2.7 -11 1 C-7.077036 -0.307655 -4.139976 -0.197142 0 0 Z " fill="#071E5B" transform="translate(446,686)"/>
<path d="M0 0 C0.66 0 1.32 0 2 0 C1.67 4.29 1.34 8.58 1 13 C0.01 13.33 -0.98 13.66 -2 14 C-2.054107 12.229503 -2.092841 10.458532 -2.125 8.6875 C-2.148203 7.701367 -2.171406 6.715234 -2.195312 5.699219 C-2 3 -2 3 0 0 Z " fill="#0B2357" transform="translate(323,703)"/>
<path d="M0 0 C0.94875 0.350625 1.8975 0.70125 2.875 1.0625 C1.8125 2.625 1.8125 2.625 -0.125 4.0625 C-3.4375 3.75 -3.4375 3.75 -7.125 3.0625 C-9.12467 3.026142 -11.125595 3.013734 -13.125 3.0625 C-13.455 2.4025 -13.785 1.7425 -14.125 1.0625 C-13.811758 1.032207 -13.811758 1.032207 -12.226562 0.878906 C-11.81793 0.837012 -11.81793 0.837012 -9.75 0.625 C-8.937891 0.543789 -8.125781 0.462578 -7.289062 0.378906 C-1.539239 -0.461772 -1.539239 -0.461772 0 0 Z " fill="#081F5F" transform="translate(451.125,717.9375)"/>
<path d="M0 0 C1.32 0.66 2.64 1.32 4 2 C4 3.32 4 4.64 4 6 C3.01 6.66 2.02 7.32 1 8 C0.01 7.67 -0.98 7.34 -2 7 C-2.125 4.625 -2.125 4.625 -2 2 C-1.34 1.34 -0.68 0.68 0 0 Z " fill="#142763" transform="translate(740,714)"/>
<path d="M0 0 C1.9375 0.75 1.9375 0.75 4 2 C4.75 4.125 4.75 4.125 5 6 C4.67 6.165 4.67 6.165 3 7 C2.67 6.34 2.34 5.68 2 5 C1.01 5.33 0.02 5.66 -1 6 C-3.228184 6.069371 -5.458345 6.084571 -7.6875 6.0625 C-8.277246 6.057988 -8.277246 6.057988 -11.261719 6.035156 C-12.165352 6.023555 -13.068984 6.011953 -14 6 C-14 5.67 -14 5.34 -14 5 C-10.04 5 -6.08 5 -2 5 C-1.67 3.68 -1.34 2.36 -1 1 C-0.67 0.67 -0.34 0.34 0 0 Z " fill="#25407C" transform="translate(603,704)"/>
<path d="M0 0 C1.65 0 3.3 0 5 0 C5 5.61 5 11.22 5 17 C4.67 17 4.34 17 4 17 C3.835 14.525 3.835 14.525 3 2 C2.34 2 1.68 2 1 2 C1 5.63 1 9.26 1 13 C0.67 13 0.34 13 0 13 C0 8.71 0 4.42 0 0 Z " fill="#052462" transform="translate(865,687)"/>
<path d="M0 0 C0.66 0.33 1.32 0.66 2 1 C2 1.66 2 2.32 2 3 C2.99 3.33 3.98 3.66 5 4 C4.67 6.97 4.34 9.94 4 13 C3.34 13 2.68 13 2 13 C1.637205 11.71073 1.285033 10.418467 0.9375 9.125 C0.740273 8.405703 0.543047 7.686406 0.339844 6.945312 C0 5 0 5 1 3 C0.34 3 -0.32 3 -1 3 C-0.67 2.01 -0.34 1.02 0 0 Z " fill="#092361" transform="translate(596,688)"/>
</svg>
